<?xml version="1.0" standalone="no"?>
<!DOCTYPE svg PUBLIC "-//W3C//DTD SVG 20010904//EN"
 "http://www.w3.org/TR/2001/REC-SVG-20010904/DTD/svg10.dtd">
<svg version="1.0" xmlns="http://www.w3.org/2000/svg"
 width="859.000000pt" height="859.000000pt" viewBox="0 0 859.000000 859.000000"
 preserveAspectRatio="xMidYMid meet">
<metadata>
Created by potrace 1.14, written by Peter Selinger 2001-2017
</metadata>
<g transform="translate(0.000000,859.000000) scale(0.100000,-0.100000)"
fill="#000000" stroke="none">
<path d="M2405 8151 c-86 -40 -116 -69 -208 -193 -318 -431 -510 -1032 -632
-1977 -13 -100 -22 -136 -49 -190 -93 -185 -115 -340 -62 -437 l28 -51 -148
-269 c-243 -443 -417 -808 -533 -1117 -67 -179 -217 -375 -382 -497 -67 -51
-194 -118 -262 -140 -65 -21 -56 -35 116 -169 95 -74 118 -101 86 -101 -20 0
-149 -55 -149 -63 0 -5 8 -6 17 -2 10 4 52 18 93 32 41 13 77 28 80 33 7 12
227 55 375 74 252 32 424 39 795 33 406 -6 1010 -45 1010 -64 0 -4 -17 -31
-46 -71 -2 -3 -166 11 -939 78 -187 17 -367 30 -400 30 -59 0 -776 -77 -783
-84 -2 -2 21 -26 50 -52 80 -73 206 -200 284 -286 l69 -78 85 -14 c400 -68
734 -35 1035 104 87 40 220 117 275 161 43 33 143 54 210 44 57 -8 123 -37
163 -71 39 -33 117 -132 117 -148 0 -8 -39 -16 -117 -24 -68 -6 -189 -28 -283
-52 -186 -46 -195 -48 -188 -56 3 -3 86 10 184 30 154 30 420 63 430 53 2 -2
19 -38 38 -80 38 -83 65 -108 231 -213 41 -26 74 -49 72 -50 -1 -1 -78 -33
-172 -72 -481 -196 -464 -188 -566 -274 -52 -44 -188 -160 -304 -258 -115 -97
-273 -231 -350 -296 -77 -66 -156 -132 -175 -148 -66 -54 -112 -98 -108 -102
3 -2 85 62 184 142 98 80 247 201 329 268 83 67 237 192 342 279 l193 157 345
138 345 139 50 -23 c134 -62 324 -115 484 -135 112 -13 561 -7 688 11 171 23
301 71 366 133 l32 31 0 -38 c0 -66 51 -130 160 -199 66 -41 181 -100 186 -95
2 2 -31 26 -72 54 -122 79 -264 240 -264 299 0 8 4 15 9 15 4 0 64 80 132 179
123 178 124 179 199 220 63 36 82 52 118 106 23 36 42 69 42 74 0 12 -13 14
-210 41 -495 69 -574 79 -577 76 -2 -2 48 -32 112 -66 l116 -61 -6 -62 c-4
-34 -8 -68 -10 -74 -2 -7 14 -105 36 -219 22 -113 39 -207 37 -208 -25 -15
-236 -109 -273 -121 -270 -90 -581 -97 -910 -20 -97 23 -300 87 -339 107 -16
9 30 30 250 118 148 59 273 115 279 124 6 11 6 19 -3 28 -12 12 -14 12 -426
-157 l-189 -78 -46 22 c-25 13 -95 49 -156 82 l-110 60 -31 74 c-38 90 -57 80
181 96 373 25 717 57 728 68 8 8 7 15 -4 26 -16 16 -100 10 -649 -45 -348 -35
-317 -34 -330 -10 -7 12 -52 67 -101 122 -76 84 -89 104 -89 133 0 30 3 35 23
35 12 0 177 -14 367 -30 870 -75 832 -72 841 -58 5 7 3 18 -4 24 -7 6 -257 41
-557 78 -300 37 -561 70 -580 74 l-35 8 70 52 c70 52 173 106 460 240 176 83
288 123 445 161 171 42 206 45 301 26 107 -22 248 -23 319 -2 65 19 132 73
160 128 45 86 51 141 51 396 l-1 241 34 119 c87 305 95 693 21 1061 -12 61
-19 112 -15 112 11 0 73 -78 103 -130 39 -68 83 -187 113 -302 14 -57 28 -105
31 -108 11 -9 -7 284 -22 375 -8 50 -15 95 -15 100 0 13 53 -70 103 -163 22
-40 41 -71 43 -69 2 2 -3 38 -11 81 -31 163 -29 366 6 490 l11 39 23 -29 c33
-41 113 -183 157 -280 53 -117 112 -299 168 -518 27 -103 51 -190 54 -193 14
-15 104 79 169 177 22 32 21 20 -3 -68 -39 -139 -22 -199 52 -189 21 3 38 2
38 -1 0 -4 -7 -48 -15 -98 -17 -104 -41 -188 -95 -329 -64 -165 -114 -465
-115 -680 0 -136 1 -142 30 -200 27 -53 40 -66 129 -126 255 -172 439 -346
500 -472 19 -39 36 -81 38 -91 3 -17 -28 -32 -210 -104 -118 -46 -216 -91
-219 -99 -15 -39 21 -31 223 51 l209 85 17 -33 c18 -34 63 -171 73 -222 l6
-31 -197 -53 c-114 -32 -198 -60 -201 -68 -17 -44 38 -32 532 118 304 92 389
104 705 104 172 1 248 -4 320 -17 157 -29 180 -40 354 -171 333 -252 351 -259
66 -26 -102 83 -207 162 -235 175 -84 41 -231 66 -424 72 l-174 6 7 96 c7 103
52 329 70 348 17 18 360 63 545 71 389 18 588 -21 888 -174 93 -48 93 -48 93
-36 0 11 -154 91 -271 141 -215 90 -387 113 -750 99 -149 -5 -423 -36 -483
-54 -21 -7 -21 -11 21 169 24 105 25 111 13 264 -26 370 -107 672 -253 955
l-60 117 60 128 c114 238 176 415 224 633 19 86 23 140 25 298 l2 192 70 88
c289 363 464 683 506 923 8 46 13 86 10 90 -2 4 -43 -5 -91 -21 -254 -80 -490
-205 -693 -367 -212 -168 -617 -365 -910 -440 -124 -32 -150 -36 -320 -40
-309 -9 -673 24 -1021 93 -403 79 -556 147 -723 324 -111 118 -172 227 -254
455 -194 539 -408 874 -696 1087 -83 62 -248 148 -281 148 -11 0 -56 -18 -100
-39z m238 -245 c130 -158 296 -457 376 -676 101 -280 173 -622 206 -987 l7
-73 -28 -2 c-126 -7 -204 35 -280 153 -55 84 -94 182 -140 346 -45 161 -48
167 -51 118 -2 -22 -14 -125 -28 -230 -13 -104 -27 -216 -30 -247 -5 -49 -10
-58 -26 -58 -55 0 -140 72 -194 164 -15 26 -30 45 -32 42 -3 -3 7 -87 22 -187
29 -195 29 -191 -22 -205 -59 -16 -120 31 -186 141 l-44 75 -6 -37 c-3 -21 -9
-102 -13 -181 -4 -78 -10 -141 -15 -140 -4 2 -34 28 -67 59 -53 50 -64 68
-101 162 -227 582 -98 1211 386 1875 l75 103 67 -72 c36 -40 92 -104 124 -143z
m4747 -1178 c-79 -235 -272 -544 -514 -820 l-75 -85 1 -149 c1 -175 -16 -269
-69 -389 -42 -95 -74 -173 -97 -238 -25 -68 -74 -117 -117 -117 -19 0 -43 7
-54 15 -19 15 -19 16 -1 63 51 132 61 191 61 359 0 89 -3 165 -7 169 -4 3 -34
-18 -66 -48 -101 -93 -185 -117 -236 -69 -30 28 -33 46 -10 59 40 22 139 132
160 177 25 52 31 109 14 120 -5 3 -10 1 -10 -4 0 -6 -19 -24 -42 -41 -68 -50
-136 -37 -197 36 l-30 37 62 75 c229 276 548 554 844 734 116 71 404 220 411
213 2 -1 -11 -45 -28 -97z m-3766 -2092 c163 -45 339 -147 392 -229 88 -135
111 -327 58 -485 -22 -68 -32 -86 -53 -94 -46 -18 -324 -4 -419 21 -101 26
-218 72 -271 106 -74 46 -162 209 -182 335 -13 85 0 200 33 285 20 53 22 54
72 64 28 5 60 12 71 15 39 10 241 -3 299 -18z m2344 -497 c65 -13 123 -63 158
-135 25 -52 27 -61 21 -152 -10 -183 -65 -269 -210 -330 -206 -86 -338 -80
-523 23 -60 34 -63 37 -70 81 -7 52 0 141 16 195 13 47 79 122 144 163 123 78
255 138 341 156 57 11 68 11 123 -1z m880 -1071 c-3 -7 -24 -16 -49 -21 -167
-31 -352 -87 -539 -162 -337 -137 -310 -128 -310 -107 0 27 470 210 645 251
241 57 260 60 253 39z"/>
<path d="M3620 4533 c-7 -34 -11 -108 -8 -182 5 -159 28 -212 59 -138 18 41
19 309 1 350 -19 45 -39 34 -52 -30z"/>
<path d="M5772 4087 c-17 -20 -33 -157 -26 -230 16 -173 63 -167 72 9 8 152
-15 259 -46 221z"/>
<path d="M5674 2179 c-3 -6 0 -17 7 -23 8 -7 133 -43 279 -80 208 -53 279 -75
335 -105 38 -21 106 -58 150 -81 44 -24 108 -61 143 -82 60 -37 89 -48 78 -29
-3 5 -56 39 -118 76 -62 36 -156 93 -208 126 -52 33 -99 62 -105 64 -5 2 -68
19 -140 39 -71 19 -188 51 -259 71 -143 39 -152 40 -162 24z"/>
<path d="M4340 2052 c0 -4 64 -36 141 -71 131 -58 145 -63 191 -57 52 7 208
64 208 77 0 4 -35 -4 -77 -18 -76 -24 -78 -24 -157 -8 -45 9 -119 28 -166 42
-136 41 -140 42 -140 35z"/>
</g>
</svg>
